<svg width="178" height="34" viewBox="0 0 178 34" fill="none" xmlns="http://www.w3.org/2000/svg">
<g clip-path="url(#clip0_36_14)">
<path d="M112.035 17.4313C112.035 15.2958 110.589 13.5577 108.095 13.5577C105.601 13.5577 104.154 15.3455 104.154 17.4313C104.154 19.6164 105.601 21.3049 108.095 21.3049C110.589 21.3049 112.035 19.6164 112.035 17.4313ZM111.836 8.8398H117.971V26.0724H111.836V24.1853H111.786C110.689 25.8738 108.593 26.6684 106.548 26.6684C101.41 26.6684 97.8189 22.3975 97.8189 17.4809C97.8189 12.5644 101.361 8.34318 106.498 8.34318C108.494 8.34318 110.589 9.08811 111.836 10.578V8.8398ZM74.5239 14.9482C74.2246 13.3094 72.7282 12.2168 71.0322 12.2168C69.2364 12.2168 67.74 13.1604 67.3908 14.9482H74.5239ZM80.2105 17.8286V18.4742H67.3409C67.3409 20.9573 68.6378 22.2981 71.1818 22.2981C72.4788 22.2981 73.4265 21.8512 74.1249 20.709H80.011C79.562 22.7451 78.315 24.1853 76.7188 25.1785C75.1225 26.1718 73.1771 26.6187 71.1818 26.6187C65.4454 26.6187 61.1555 23.3907 61.1555 17.4809C61.1555 11.7202 65.0962 8.29352 70.7329 8.29352C76.7686 8.24386 80.2105 11.9188 80.2105 17.8286ZM56.6162 3.67498H50.4807V8.8398H48.4855V13.8556H50.4807V26.0228H56.6162V13.8556H60.108V8.8398H56.6162V3.67498ZM40.3048 17.4313C40.3048 15.2958 38.8582 13.5577 36.3641 13.5577C33.87 13.5577 32.4234 15.3455 32.4234 17.4313C32.4234 19.6164 33.87 21.3049 36.3641 21.3049C38.8582 21.3049 40.3048 19.6164 40.3048 17.4313ZM46.7895 17.4313C46.7895 23.2914 41.9509 26.569 36.3641 26.569C30.8272 26.6187 25.9387 23.2914 25.9387 17.4313C25.9387 11.5712 30.7773 8.24386 36.3641 8.24386C41.901 8.24386 46.7895 11.5712 46.7895 17.4313ZM9.27808 17.6299C9.27808 22.8444 13.5679 26.6187 18.6559 26.6187C20.1524 26.6187 21.599 26.3207 22.9458 25.6255V20.4607C22.1477 21.2056 20.9505 21.6525 19.903 21.6525C17.359 21.6525 15.6131 19.9144 15.6131 17.4313C15.6131 15.0475 17.4588 13.2597 19.8032 13.2597C21.0004 13.2597 22.0479 13.806 22.9957 14.4516V9.23709C21.7985 8.54183 20.3519 8.24386 18.9552 8.24386C13.5679 8.24386 9.27808 12.0678 9.27808 17.6299ZM0 26.0228H6.58444V0.744934H0V26.0228ZM90.6858 9.28676C90.6858 11.1739 92.2321 12.7134 94.1276 12.7134C96.0231 12.7134 97.5695 11.1739 97.5695 9.28676V8.8398H90.6858V9.28676ZM83.403 26.0228H89.5385V19.0701V11.6209V8.79014H83.403V26.0228Z" fill="black"/>
<path d="M143.062 0H145.357V33.77H143.062C133.585 33.77 126.003 26.3207 126.003 16.885C126.003 7.49893 133.585 0 143.062 0Z" fill="#007934"/>
<path d="M148.698 16.8855C148.698 24.4837 154.784 30.4431 162.416 30.4431H164.261V3.27814H162.416C154.784 3.3278 148.698 9.33687 148.698 16.8855Z" fill="#007934"/>
<path d="M176.483 7.54858C171.245 7.54858 167.005 11.7202 167.005 16.9347C167.005 22.1491 171.196 26.3207 176.483 26.3207H177.78V7.59825H176.483V7.54858Z" fill="#007934"/>
</g>
<defs>
<clipPath id="clip0_36_14">
<rect width="177.78" height="33.77" fill="white"/>
</clipPath>
</defs>
</svg>
